<?xml version="1.0" standalone="no"?>
<!DOCTYPE svg PUBLIC "-//W3C//DTD SVG 1.1//EN" "http://www.w3.org/Graphics/SVG/1.1/DTD/svg11.dtd" >
<svg xmlns="http://www.w3.org/2000/svg">
<metadata></metadata>
<defs>
<font id="intro_lightregular" horiz-adv-x="1161" >
<font-face units-per-em="2048" ascent="1536" descent="-512" />
<missing-glyph horiz-adv-x="542" />
<glyph horiz-adv-x="0" />
<glyph horiz-adv-x="682" />
<glyph unicode=" "  horiz-adv-x="542" />
<glyph unicode="&#x09;" horiz-adv-x="542" />
<glyph unicode="&#xa0;" horiz-adv-x="542" />
<glyph unicode="!" horiz-adv-x="477" d="M170 47q0 30 18 47t48 17t49.5 -17t19.5 -47q0 -29 -19.5 -46t-49.5 -17t-48 17t-18 46zM186 1434h103l-2 -1172h-97z" />
<glyph unicode="&#x22;" horiz-adv-x="638" d="M160 997v437h82l-11 -437h-71zM401 997v437h82l-12 -437h-70z" />
<glyph unicode="#" horiz-adv-x="1392" d="M98 430v76h267l55 377h-258v75h270l70 474h88l-68 -474h441l71 474h90l-69 -474h239v-75h-252l-55 -377h244v-76h-254l-62 -430h-94l64 430h-441l-63 -430h-94l65 430h-254zM453 504h446l53 381h-442z" />
<glyph unicode="$" horiz-adv-x="1318" d="M100 375h101q6 -73 44 -130t97.5 -92t126.5 -55t141 -26v624q-83 11 -145.5 25t-128 42t-107.5 65.5t-69 97.5t-27 137q0 94 42 169t111.5 121t152 71.5t171.5 29.5v137h92v-139q88 -6 166.5 -29.5t147.5 -65.5t112.5 -111.5t49.5 -158.5h-99q-6 67 -42 119.5t-91 84.5 t-116.5 49.5t-127.5 21.5v-590q201 -30 285 -60q168 -59 213 -194q19 -57 19 -129q0 -82 -31 -149.5t-81.5 -112.5t-119 -76.5t-139 -47.5t-146.5 -21v-140h-92v140q-92 4 -178 30t-159.5 72.5t-120 121.5t-52.5 169zM236 1059q0 -60 23.5 -106t57.5 -73t88 -47.5 t98.5 -29.5t106.5 -17v578q-54 -3 -105 -15t-100.5 -36.5t-86.5 -58.5t-59.5 -84.5t-22.5 -110.5zM702 74q59 3 115 15t111.5 36.5t97 59t67 87.5t25.5 117q0 48 -12.5 87t-28 65.5t-51 48.5t-58 34t-75 24.5t-76 16.5t-84.5 14q-21 3 -31 5v-610z" />
<glyph unicode="%" horiz-adv-x="1644" d="M78 1124q0 79 28 143t73.5 103.5t104 61t119 21.5t119 -21.5t104 -61t73.5 -103.5t28 -143t-28 -143t-73.5 -103.5t-104 -61t-119 -21.5t-119 21t-104 60.5t-73.5 103.5t-28 144zM164 1124q0 -80 35.5 -139t88.5 -85.5t115.5 -26.5t115.5 26.5t88.5 85.5t35.5 139 t-35.5 138.5t-88.5 85t-115.5 26.5t-115.5 -26.5t-88.5 -85t-35.5 -138.5zM414 -2l702 1432h101l-701 -1432h-102zM918 303q0 79 28 143t73.5 103.5t104 61t119 21.5t119 -21.5t104 -61t73.5 -103.5t28 -143t-28 -143t-73.5 -103t-104 -60.5t-119 -21t-119 22t-104 60.5 t-73.5 103t-28 142zM1001 303q0 -80 35.5 -138.5t89.5 -85t116 -26.5t116 26.5t89.5 85t35.5 138.5t-35.5 139t-89.5 85.5t-116 26.5t-116 -26.5t-89.5 -85.5t-35.5 -139z" />
<glyph unicode="&#x26;" horiz-adv-x="1341" d="M119 418q0 308 311 389q-212 67 -221 299q0 89 37.5 158t100.5 108.5t138 59.5t158 20q84 0 156 -18.5t131.5 -56.5t95 -103t39.5 -150h-90q-4 65 -32.5 113t-76 75t-103.5 39.5t-122 12.5q-90 0 -163 -24.5t-123 -84.5t-50 -149q0 -130 102 -195t275 -65v-86 q-61 0 -92 -2q-369 -29 -369 -338q0 -156 116.5 -253t280.5 -97q191 0 292.5 119.5t101.5 316.5v332h248v-82h-158v-252q0 -251 -127.5 -387.5t-356.5 -136.5q-216 0 -357.5 122.5t-141.5 315.5z" />
<glyph unicode="'" horiz-adv-x="411" d="M160 997v437h98l-14 -437h-84z" />
<glyph unicode="(" horiz-adv-x="589" d="M106.5 578.5q-1.5 200.5 36.5 381t122.5 339t205.5 255.5l49 -71q-103 -90 -175 -237t-103.5 -315.5t-29.5 -354.5t37 -354t106 -314t169 -234l-53 -73q-116 98 -199 256.5t-123.5 339.5t-42 381.5z" />
<glyph unicode=")" horiz-adv-x="589" d="M66 -326q98 88 169 234t106 314t37 354t-29.5 354.5t-103.5 315.5t-175 237l49 71q122 -97 206.5 -255.5t122 -339t35.5 -380t-42.5 -380.5t-123.5 -340t-198 -258z" />
<glyph unicode="*" horiz-adv-x="849" d="M131 1210l23 72l235 -90l-4 254h80l-10 -256l237 94l25 -72l-238 -84l172 -213l-59 -45l-168 222l-166 -224l-59 47l168 209z" />
<glyph unicode="+" horiz-adv-x="958" d="M131 707v84h307v309h84v-309h305v-84h-305v-306h-84v306h-307z" />
<glyph unicode="," horiz-adv-x="438" d="M145 41q0 30 20.5 49t53.5 19q26 0 47 -15t25 -39v-26q-3 -8 -6 -22.5t-6 -22.5l-56 -177h-73l49 168q-24 5 -39 22.5t-15 43.5z" />
<glyph unicode="-" horiz-adv-x="931" d="M145 639v88h641v-88h-641z" />
<glyph unicode="." horiz-adv-x="440" d="M145 57q0 42 37.5 59.5t75 0.5t37.5 -60q0 -32 -23.5 -50t-51.5 -18t-51.5 18t-23.5 50z" />
<glyph unicode="/" horiz-adv-x="937" d="M72 2l692 1432h104l-694 -1432h-102z" />
<glyph unicode="0" horiz-adv-x="1359" d="M154 471v487q0 149 70 262.5t189.5 172.5t268.5 59q147 0 265.5 -59t188.5 -172.5t70 -262.5v-487q0 -150 -70 -263.5t-188.5 -172t-265.5 -58.5q-228 0 -378 134.5t-150 359.5zM252 492q0 -93 31 -175q44 -117 150 -181t249 -64q142 0 247.5 64t149.5 181q31 82 31 175 v446q0 93 -31 172q-44 120 -149.5 185t-247.5 65q-143 0 -249 -65t-150 -185q-31 -79 -31 -172v-446z" />
<glyph unicode="1" horiz-adv-x="866" d="M96 0v88h301v1262h-264v84h365v-1346h303v-88h-705z" />
<glyph unicode="2" horiz-adv-x="1101" d="M100 0v23l633 745q52 57 84 125t41.5 134t-5.5 128t-52.5 109t-105 75.5t-156.5 28.5q-157 0 -238.5 -73.5t-81.5 -219.5h-88q0 184 102 281t304 98q105 2 187.5 -31t132 -90t73.5 -133t17.5 -157.5t-42.5 -167.5t-100 -160q-41 -46 -84.5 -97.5t-96.5 -115t-87 -103.5 l-275 -313l293 6h430v-92h-885z" />
<glyph unicode="3" horiz-adv-x="1187" d="M109 369h94q23 -144 120.5 -221.5t247.5 -77.5q178 0 286 96t108 272q0 95 -42.5 172.5t-113.5 120.5t-165 56.5t-198 -19.5v37l451 536h-729v93h903v-25l-465 -549q199 12 328 -105t129 -313q0 -214 -133 -339.5t-357 -125.5q-192 0 -316.5 103t-147.5 289z" />
<glyph unicode="4" horiz-adv-x="1185" d="M70 336v49l776 1049h94v-1010h154v-88h-154v-336h-96v336h-774zM209 426h637v399l4 459h-4z" />
<glyph unicode="5" horiz-adv-x="1189" d="M127 352h92q59 -280 373 -280q72 0 141 24t126 69t91.5 119t34.5 165q0 100 -31.5 174.5t-88 118t-125 65.5t-152.5 27q-179 10 -416 -56v656h827v-91h-737v-462q147 49 328 39q80 -4 150 -21.5t134 -53.5t109.5 -89t72.5 -131.5t27 -175.5q0 -204 -140.5 -336.5 t-354.5 -132.5q-185 0 -308.5 96t-152.5 276z" />
<glyph unicode="6" horiz-adv-x="1193" d="M84 446q0 156 88 281l475 711h117l-406 -592q107 61 250 61q137 3 250.5 -51.5t182.5 -162t69 -247.5q0 -145 -71 -251.5t-186 -158.5t-257 -52q-104 0 -196.5 30.5t-163 87.5t-111.5 146t-41 198zM186 446q0 -172 118.5 -272t291.5 -100q176 0 295 100t119 272 q0 115 -58 201t-151.5 128t-206.5 42q-173 0 -290.5 -99.5t-117.5 -271.5z" />
<glyph unicode="7" horiz-adv-x="1046" d="M86 1339v95h926v-17l-686 -1417h-107l649 1339h-782z" />
<glyph unicode="8" horiz-adv-x="1267" d="M115 401q0 149 90 253t231 143q-104 39 -166.5 117.5t-62.5 191.5q0 108 59.5 191t155.5 125t211 42q116 0 213 -41t158 -124t61 -193q0 -113 -65.5 -191.5t-172.5 -117.5q144 -40 234.5 -142.5t91.5 -253.5q0 -99 -42 -181t-113.5 -136.5t-165.5 -84.5t-199 -30 q-140 0 -256.5 50.5t-189 150.5t-72.5 231zM217 403q0 -107 61.5 -187t154.5 -118.5t200 -38.5q108 0 201.5 38.5t155 118.5t61.5 187q0 110 -62 190t-155.5 117.5t-202.5 37.5q-108 0 -200 -37.5t-153 -117.5t-61 -190zM301 1102q0 -83 49 -145.5t123 -92.5t158 -30 q88 0 162.5 29.5t124 92.5t49.5 148q0 86 -49 150t-123.5 94t-161.5 30q-85 0 -159 -30.5t-123.5 -95t-49.5 -150.5z" />
<glyph unicode="9" horiz-adv-x="1193" d="M84 999q0 146 71 253t186 158.5t257 51.5q105 0 196.5 -28.5t162.5 -84t112 -145t41 -203.5q0 -73 -24.5 -148.5t-67.5 -135.5l-471 -717h-115l406 600q-100 -57 -250 -57q-139 0 -252 52t-182.5 157t-69.5 247zM184 999q0 -92 33.5 -164t91.5 -116t132 -67t159 -23 q173 0 291.5 100t118.5 272q0 92 -33 164t-90 116.5t-130.5 67.5t-158.5 23q-115 0 -207 -41t-149.5 -127t-57.5 -205z" />
<glyph unicode=":" horiz-adv-x="438" d="M147 55q0 30 21 49t51 19q31 0 52.5 -19t21.5 -49q0 -29 -21.5 -48t-52.5 -19q-30 0 -51 19t-21 48zM147 760q0 30 21 48.5t51 18.5q32 0 53 -18.5t21 -48.5q0 -29 -21.5 -48.5t-52.5 -19.5q-30 0 -51 19.5t-21 48.5z" />
<glyph unicode=";" horiz-adv-x="456" d="M158 760q0 29 18 46t47 17q30 0 50 -17t20 -46t-20 -46.5t-50 -17.5q-29 0 -47 17.5t-18 46.5zM162 43q0 29 18.5 45t48.5 16q24 0 43 -13t23 -36v-24q-3 -7 -5 -20.5t-5 -20.5l-47 -140h-66l39 132q-49 9 -49 61z" />
<glyph unicode="&#x3c;" horiz-adv-x="1040" d="M102 676v76l777 346v-92l-658 -293l658 -310v-90z" />
<glyph unicode="=" horiz-adv-x="1075" d="M158 449v83h760v-83h-760zM158 741v84h760v-84h-760z" />
<glyph unicode="&#x3e;" horiz-adv-x="1040" d="M162 313v95l657 307l-657 286v97l776 -346v-76z" />
<glyph unicode="?" horiz-adv-x="999" d="M82 1096q0 88 33.5 155.5t92 108t132 60.5t158.5 20q67 0 129 -14.5t117.5 -46.5t95 -77.5t59.5 -112t12 -145.5q-5 -67 -30 -123.5t-60 -97.5t-76 -80.5t-80.5 -84t-70.5 -96t-47.5 -128t-11.5 -170.5h-101q-2 108 17 194t51 141.5t71 100.5t79 82t74 74t57 88t26 113 q4 75 -21 132t-70.5 89.5t-101.5 48.5t-120 16q-62 0 -117 -12.5t-103 -40t-76 -77.5t-28 -117h-90zM414 41q0 28 19.5 44.5t49.5 16.5t49 -16t19 -45t-19.5 -47.5t-48.5 -18.5q-30 0 -49.5 18.5t-19.5 47.5z" />
<glyph unicode="@" horiz-adv-x="1847" d="M123 504q16 178 86.5 327.5t183.5 256t270.5 166t340.5 59.5q179 0 325.5 -57.5t243.5 -161.5t143.5 -253.5t30.5 -328.5q-5 -69 -19.5 -137t-43.5 -138.5t-68.5 -123.5t-99 -87t-130.5 -34q-56 0 -85.5 28t-33 74t0.5 105l6 53q-56 -120 -172 -190t-248 -70 q-142 0 -240 71.5t-138.5 186.5t-26.5 254q8 103 41.5 189t85 146t119.5 101t144 60.5t158 19.5q111 -2 222 -45t184 -115l-55 -624q-4 -45 -5 -82.5t16 -61.5t54 -24q48 -2 90.5 29t72 80t52 110t34.5 118.5t15 106.5q29 331 -158 531t-522 200q-337 0 -552.5 -204 t-245.5 -535q-16 -170 23.5 -310t124.5 -231.5t202 -140.5t262.5 -44.5t298.5 62.5l-6 -65q-137 -49 -269 -57.5t-245 20t-206.5 94.5t-156 161t-90.5 226.5t-14 284.5zM547 504q-18 -191 65.5 -306.5t259.5 -115.5q161 0 271 112.5t131 276.5l31 344q-115 107 -324 117 q-80 0 -153 -26t-133.5 -77t-100 -134.5t-47.5 -190.5z" />
<glyph unicode="A" horiz-adv-x="1449" d="M31 0v12l671 1426h48l665 -1426v-12h-106l-195 414h-780l-195 -414h-108zM369 504h710l-354 764z" />
<glyph unicode="B" horiz-adv-x="1363" d="M203 0v1434h524q99 0 180 -21t145 -65t99 -118t35 -173q0 -109 -54 -193.5t-159 -118.5q133 -32 206.5 -126.5t73.5 -225.5q0 -193 -125 -293t-329 -100h-596zM305 94h488q104 0 181.5 29.5t126 98t48.5 171.5q0 299 -408 299h-436v-598zM305 780h426q79 0 139.5 13 t110.5 43t77 86.5t27 136.5q0 81 -28 138t-79.5 87.5t-113 43.5t-141.5 13h-418v-561z" />
<glyph unicode="C" horiz-adv-x="1558" d="M111 717q0 215 93 383t257 260t370 92q212 -5 383 -112.5t242 -305.5h-100q-72 153 -214.5 237.5t-314.5 84.5h-12q-173 0 -309 -80q-140 -84 -215.5 -230t-75.5 -329q0 -135 44.5 -252t123.5 -202t194.5 -134t251.5 -49q181 0 326.5 91t210.5 255h100 q-67 -210 -242 -326t-395 -116q-153 0 -286 53.5t-228 149t-149.5 232.5t-54.5 298z" />
<glyph unicode="D" horiz-adv-x="1503" d="M203 0v1434h493q157 0 288.5 -57t220 -154.5t137.5 -228t49 -277.5q0 -149 -49.5 -280t-138 -228t-220 -153t-287.5 -56h-493zM307 96h385q133 0 245.5 48t189 131t119 196.5t42.5 243.5q0 173 -72 314t-208.5 224.5t-313.5 83.5h-387v-1241z" />
<glyph unicode="E" horiz-adv-x="1165" d="M203 0v1434h827v-91h-725v-557h694v-92h-694v-600h731v-94h-833z" />
<glyph unicode="F" horiz-adv-x="1132" d="M203 0v1434h837v-93h-733v-596h680v-94h-680v-651h-104z" />
<glyph unicode="G" horiz-adv-x="1599" d="M111 721q0 211 91.5 378.5t253 261t363.5 93.5q227 0 392 -100t239 -307h-104q-134 311 -529 311q-180 -3 -318.5 -87t-212 -227.5t-73.5 -322.5q0 -184 72.5 -329t210.5 -229.5t321 -84.5q255 0 416 155.5t178 411.5h-565v90h667q0 -214 -63 -360q-79 -189 -244.5 -292 t-388.5 -103q-154 0 -285.5 55.5t-224 153t-144.5 235t-52 297.5z" />
<glyph unicode="H" horiz-adv-x="1476" d="M203 0v1434h102v-633h864v633h105v-1434h-105v705h-864v-705h-102z" />
<glyph unicode="I" horiz-adv-x="782" d="M68 0v84h272v1266h-254v84h610v-84h-254v-1266h273v-84h-647z" />
<glyph unicode="J" horiz-adv-x="1314" d="M74 483v103h100v-103q0 -193 114.5 -300t305.5 -107q192 0 310 109t118 298v856h-399v95h503v-951q0 -232 -148.5 -367.5t-383.5 -135.5q-233 0 -376.5 135.5t-143.5 367.5z" />
<glyph unicode="K" horiz-adv-x="1325" d="M203 0v1434h104v-686q279 0 365 49q27 15 51.5 45.5t41 61t35.5 80t28 78t24 79.5q4 13 6 20q16 54 32.5 93.5t40.5 75.5t53 57q28 21 68 37q38 16 86 15q1 1 3 1q49 0 112 -8v-76q-36 4 -67 4q-32 0 -58 -4q-50 -10 -83 -42t-52 -72.5t-39 -111.5q-18 -58 -23 -73.5 t-22.5 -67t-29.5 -74.5t-32 -61t-42.5 -64t-48.5 -47l532 -729v-14h-119l-503 698q-76 -39 -359 -39v-659h-104z" />
<glyph unicode="L" horiz-adv-x="1052" d="M203 0v1434h104v-1340h713v-94h-817z" />
<glyph unicode="M" horiz-adv-x="1685" d="M203 0v1436h43l598 -861l596 861h43v-1436h-105v1178l-524 -758h-20l-527 758v-1178h-104z" />
<glyph unicode="N" horiz-adv-x="1521" d="M203 0v1436h41l981 -1207l-11 521v686h105v-1436h-35l-987 1210l10 -489v-721h-104z" />
<glyph unicode="O" horiz-adv-x="1671" d="M111 717q0 163 55.5 301.5t152 234t230 149.5t285.5 54q207 0 372 -91.5t260 -261t95 -386.5q0 -215 -92 -383.5t-258 -262.5t-377 -94q-155 0 -288.5 54t-229.5 150t-150.5 234.5t-54.5 301.5zM215 717q0 -140 47 -260t129 -204t196.5 -131.5t246.5 -47.5q177 0 319 81 t222.5 228t80.5 334q0 186 -79.5 332.5t-221 227.5t-319.5 81t-319.5 -80.5t-221.5 -227t-80 -333.5z" />
<glyph unicode="P" horiz-adv-x="1327" d="M203 0v1436h555q216 0 356.5 -135.5t140.5 -342.5t-140 -340t-357 -133h-453v-485h-102zM305 582h453q169 0 282 105.5t113 273.5q0 169 -111.5 274.5t-283.5 105.5h-453v-759z" />
<glyph unicode="Q" horiz-adv-x="1669" d="M111 721q0 214 92 382t257.5 261.5t375.5 93.5q153 0 287 -54t230.5 -149t152 -233.5t55.5 -300.5q0 -309 -183 -508l156 -221v-17h-98l-127 175q-196 -166 -468 -166h-10q-153 0 -286 54t-228.5 150t-150.5 234t-55 299zM215 721q0 -188 81.5 -335t222.5 -226.5 t317 -79.5q133 0 248 46.5t197.5 130t129.5 203.5t47 261q0 185 -80.5 331t-222.5 226t-319 80q-131 0 -246 -47t-197.5 -130t-130 -202t-47.5 -258z" />
<glyph unicode="R" horiz-adv-x="1366" d="M203 0v1434h551q210 0 345.5 -125t135.5 -322q0 -174 -108 -288t-279 -140l446 -543v-16h-114l-439 547h-434v-547h-104zM305 637h449q162 0 271.5 96t109.5 256q0 158 -109 255t-272 97h-449v-704z" />
<glyph unicode="S" horiz-adv-x="1323" d="M102 375h93q5 -65 37 -118t80.5 -87t111 -57t124 -33t122.5 -10q81 0 157 19t141 56.5t105.5 101t42.5 144.5v9q0 62 -25 110q-27 50 -61.5 78.5t-105 51t-114.5 30.5t-133 21q-4 1 -6.5 1t-6.5 1t-7 1q-47 6 -79 10.5t-75.5 12t-74 16t-68 20.5t-63 27t-53.5 34.5 t-46 44t-33.5 53.5t-22.5 66t-7 79q0 79 30.5 146t81 113t117 78t138 47t145.5 15q104 0 194 -21t165.5 -64.5t121.5 -117.5t52 -172h-97q-5 64 -34.5 114t-73.5 81t-101.5 51.5t-113 28.5t-113.5 8q-78 0 -149 -18t-129.5 -53.5t-93.5 -95.5t-35 -138q0 -65 28 -113.5 t58 -74t100 -45.5t102.5 -25t115.5 -15q20 -3 30 -4q70 -10 118.5 -18.5t110.5 -24t104 -34t86 -48.5t69.5 -66.5t41.5 -88.5q15 -48 15 -106v-7q-2 -102 -49.5 -182.5t-126 -128.5t-172.5 -73t-197 -25q-81 0 -158.5 13.5t-151 44t-129.5 75t-92 112t-41 150.5z" />
<glyph unicode="T" horiz-adv-x="1118" d="M37 1339v95h1044v-95h-471v-1339h-102v1339h-471z" />
<glyph unicode="U" horiz-adv-x="1447" d="M188 492v942h103v-940q0 -195 119.5 -305.5t316.5 -110.5q195 0 313.5 110.5t118.5 305.5v940h101v-942q0 -236 -147.5 -373t-385.5 -137q-240 0 -389.5 137t-149.5 373z" />
<glyph unicode="V" horiz-adv-x="1351" d="M63 1419v15h111l229 -568q14 -40 39 -96l236 -586h2l229 586l269 664h108v-15l-588 -1423h-43z" />
<glyph unicode="W" horiz-adv-x="1933" d="M82 1417v17h104l174 -576l189 -655l393 1204h45l399 -1202h3l151 551l201 678h108v-13l-432 -1427h-57l-395 1184l-392 -1184h-53z" />
<glyph unicode="X" horiz-adv-x="1243" d="M25 0v14l540 742l-485 663v15h110l433 -594h2l434 594h106v-13l-485 -665l541 -744v-12h-113l-481 672h-4l-484 -672h-114z" />
<glyph unicode="Y" horiz-adv-x="1277" d="M57 1421v13h113l467 -727h4l467 727h111v-15l-529 -823v-596h-102v596z" />
<glyph unicode="Z" horiz-adv-x="1181" d="M37 0v12l598 881l315 450l-381 -4h-463v95h1006v-17l-618 -905l-299 -424l559 8h358v-96h-1075z" />
<glyph unicode="[" horiz-adv-x="577" d="M180 -344v1876h312v-82h-218v-1706h218v-88h-312z" />
<glyph unicode="\" horiz-adv-x="937" d="M70 1434h104l692 -1432h-102z" />
<glyph unicode="]" horiz-adv-x="577" d="M86 -256h217v1706h-217v82h311v-1876h-311v88z" />
<glyph unicode="^" horiz-adv-x="1032" d="M133 866l342 564h74l350 -564h-94l-293 469l-285 -469h-94z" />
<glyph unicode="_" horiz-adv-x="1261" d="M145 -27h971v-88h-971v88z" />
<glyph unicode="`" horiz-adv-x="688" d="M213 1425v11l86 41l176 -269v-6h-90z" />
<glyph unicode="a" horiz-adv-x="1099" d="M82 283q0 81 31.5 145.5t85.5 104t122 60.5t144 21q201 0 366 -86v152q0 69 -29 118.5t-79 75.5t-105 37t-120 11q-188 0 -318 -76l-22 82q148 82 352 82q84 0 155.5 -18t131.5 -55.5t94.5 -103.5t34.5 -155l-2 -451v-15q0 -92 13 -119q18 -38 80 -38q15 0 32 2l4 -67 q-39 -6 -70 -6q-67 0 -97 30q-39 39 -39 140q0 12 1 24q-55 -100 -167.5 -147t-248.5 -47q-88 0 -167 34.5t-131 104.5t-52 160zM178 287q3 -73 42.5 -123.5t98.5 -73t130 -22.5q84 0 160.5 24t139 80t82.5 137v133q-168 90 -343 90h-11q-121 0 -212 -65q-87 -62 -87 -170 v-10z" />
<glyph unicode="b" horiz-adv-x="1175" d="M160 66v1433h98v-614q88 65 185 95q85 27 163 27q12 1 24 -1q90 -4 171 -41.5t141 -101t95.5 -159.5t35.5 -212v-12q1 -122 -37 -218q-40 -100 -109 -158t-160 -90.5t-194 -33.5h-9q-100 0 -200 21q-106 22 -204 65zM256 129q84 -31 168 -45q71 -12 140 -12h25 q81 2 150.5 29.5t122.5 75.5t83 128.5t30 186.5q-2 105 -35 188t-87 134t-126 77q-62 23 -130 23q-11 0 -21 -1q-78 -4 -161.5 -37t-158.5 -94v-653z" />
<glyph unicode="c" d="M100 498q0 99 30 184.5t82 145t120 102t144 62.5q72 19 147 18h8q149 -3 269 -79t167 -216h-96q-43 99 -135 152t-203 55h-6q-78 0 -151 -26q-76 -27 -138.5 -78.5t-100.5 -134.5t-38 -185q0 -101 36 -183.5t96 -134t134 -79t153 -27.5q120 0 218.5 60.5t142.5 174.5h98 q-49 -156 -177 -239.5t-286 -83.5q-97 0 -187.5 33t-164 95t-118 161.5t-44.5 222.5z" />
<glyph unicode="d" horiz-adv-x="1228" d="M102 498q0 113 37 208t99 158t146 100q84 36 174 40q11 0 21 1q81 0 167 -27q98 -30 184 -95v618h96v-1323q0 -70 26 -93q18 -16 60 -16q18 0 41 3l4 -76q-40 -6 -71 -6q-66 0 -98 28q-46 42 -46 160v51q-48 -123 -149.5 -183t-237.5 -60q-107 0 -194.5 41.5t-143 112 t-85.5 162.5t-30 196zM201 498q0 -115 39 -209t124 -154.5t203 -60.5q159 0 258.5 108.5t104.5 268.5v329q-74 62 -159 96t-165 38h-19q-70 0 -135 -23q-74 -26 -129.5 -77t-88.5 -133t-33 -183z" />
<glyph unicode="e" horiz-adv-x="1144" d="M102 528q12 223 148.5 351.5t351.5 128.5q242 -2 360 -138q87 -101 86 -262q0 -56 -10 -119h-837q0 -206 117.5 -311t320.5 -110q181 3 342 75l20 -84q-178 -79 -360 -79q-167 0 -291 62q-124 63 -190 188q-59 112 -59 261q0 18 1 37zM203 573h753q2 22 2 44 q0 86 -36 150q-44 81 -128 120t-196 39q-166 0 -272 -94t-123 -259z" />
<glyph unicode="f" horiz-adv-x="782" d="M51 901v86h232v178q0 128 47 210t126 111q62 23 134 23q19 0 38 -1q95 -8 197 -52l-20 -80q-80 35 -153 44q-24 3 -47 3q-46 0 -87 -12q-63 -18 -100 -81t-37 -167v-176h381v-86h-381v-901h-98v901h-232z" />
<glyph unicode="g" horiz-adv-x="1179" d="M104 496q0 247 147.5 379.5t387.5 132.5q178 -3 381 -95v-1001q0 -116 -35.5 -205t-97.5 -143t-140.5 -81t-171.5 -28h-11q-201 0 -392 111l25 90q188 -109 378 -109q74 0 135 20.5t110 62.5t76.5 114t27.5 168v174q-166 -110 -346 -113h-11q-91 0 -171 30 q-85 32 -150.5 95.5t-103.5 166t-38 231.5zM203 496q0 -109 30.5 -194t83.5 -137t120.5 -78t146.5 -26q180 0 340 129v658q-147 63 -291 63q-199 0 -314.5 -105t-115.5 -310z" />
<glyph unicode="h" horiz-adv-x="1177" d="M166 0v1499h96v-672q103 185 369 185q78 0 148 -28t125 -80t87.5 -134t32.5 -182v-588h-100v588q0 160 -84 248t-238 88q-156 0 -248 -97.5t-92 -251.5v-575h-96z" />
<glyph unicode="i" horiz-adv-x="440" d="M154 1333q0 34 20 53q19 17 44 17h5q27 -2 46.5 -20t19.5 -50t-18.5 -49.5t-45.5 -19.5q-28 -2 -49.5 17t-21.5 52zM172 0v981h96v-981h-96z" />
<glyph unicode="j" horiz-adv-x="442" d="M-104 -510l4 80q40 -7 73.5 -7.5t59.5 4.5t46 17t34.5 27t25 37.5t17 46t10 56t5 62.5t1.5 70v1100h98v-1100q0 -75 -7 -132.5t-24 -109t-44.5 -83.5t-69.5 -54.5t-99 -23.5h-9q-53 0 -121 10zM154 1333q0 33 19.5 51.5t47.5 18.5q27 0 47.5 -19t20.5 -51t-19.5 -49.5 t-46.5 -19.5h-5q-25 0 -44 16q-20 19 -20 53z" />
<glyph unicode="k" horiz-adv-x="1071" d="M166 2v1495h98v-940h164q219 0 329.5 106t110.5 326h95v-7q0 -374 -308 -468l357 -500v-12h-105l-342 483q-65 -12 -139 -12h-162v-471h-98z" />
<glyph unicode="l" horiz-adv-x="536" d="M158 371v1130h100v-1128q0 -86 9.5 -139.5t37 -95.5t83.5 -55q29 -7 66 -7q35 0 76 6l5 -84q-56 -8 -103 -8q-44 0 -82 8q-74 16 -116 66t-59 123t-17 184z" />
<glyph unicode="m" horiz-adv-x="1826" d="M70 985q38 7 70 7q59 0 95 -25q56 -39 56 -146q56 91 153 141q90 46 197 46h18q105 -5 183 -57.5t112 -157.5q98 215 377 215q73 0 132.5 -24t97.5 -63.5t63.5 -92.5t36 -108.5t10.5 -115.5v-604h-100v604q0 63 -12.5 116.5t-40 100t-79 73t-122.5 26.5 q-145 0 -235.5 -100.5t-90.5 -241.5v-578h-96v578q0 72 -14 131.5t-44 108t-82.5 75.5t-123.5 27q-153 0 -243.5 -93.5t-90.5 -246.5v-580h-98v723q1 111 -23 149q-18 29 -69 29q-15 0 -33 -2z" />
<glyph unicode="n" horiz-adv-x="1202" d="M68 991q43 6 77 6q60 0 92 -20q50 -32 50 -146q66 97 155 139q85 41 198 40h11q184 0 291 -114t107 -296v-600h-99v600q0 146 -88.5 232t-232.5 86q-148 0 -242 -91t-94 -243v-584h-98v731q-1 121 -23 153q-16 24 -63 24q-17 0 -39 -3z" />
<glyph unicode="o" horiz-adv-x="1236" d="M100 496q0 123 44.5 223t117.5 161.5t166 94.5t190.5 33t190.5 -33t166 -94.5t117.5 -161.5t44.5 -223t-44.5 -222.5t-117.5 -160.5t-166 -94.5t-190.5 -33.5t-190.5 33.5t-166 94.5t-117.5 160.5t-44.5 222.5zM199 496q0 -101 36 -183t95 -132.5t134.5 -78t154 -27.5 t154 27t134.5 77.5t95 132.5t36 184t-36 184.5t-95 133t-134.5 78t-154 27.5t-154 -27.5t-134.5 -78t-95 -133t-36 -184.5z" />
<glyph unicode="p" horiz-adv-x="1220" d="M66 997q35 6 63 6q69 0 103 -33q49 -45 49 -153v-29q109 224 391 224q105 0 191.5 -42t141.5 -113.5t85 -163.5t30 -195q0 -114 -36.5 -209.5t-98 -159t-145 -100.5t-174.5 -41h-20q-81 0 -168 27q-97 31 -185 96v-621h-96v1196v33v38t-0.5 35t-2 31.5t-4.5 27.5t-8 23.5 t-11.5 18.5t-16 14t-21.5 8.5t-28 2.5t-35 -3zM293 213q74 -62 158.5 -95.5t164.5 -37.5h18q70 0 135 23q74 26 129.5 77t88.5 133.5t33 184.5q0 84 -23.5 159.5t-68 134.5t-115 93.5t-158.5 34.5q-159 0 -258 -108.5t-104 -268.5v-330z" />
<glyph unicode="q" horiz-adv-x="1183" d="M104 498v12q0 127 40 224q42 101 117.5 160t170.5 88q91 28 198 28h7q192 -3 385 -86v-1436h-98v618q-168 -122 -351 -122q-95 0 -179.5 34.5t-149.5 98t-102.5 162.5t-37.5 219zM203 498q3 -197 110 -307.5t267 -110.5q179 0 346 133v647q-147 64 -293 64 q-89 0 -165.5 -25t-137 -74.5t-94.5 -133.5q-33 -82 -33 -187v-6z" />
<glyph unicode="r" horiz-adv-x="874" d="M70 985q46 8 83 8q57 0 89 -19q54 -31 53 -118q47 83 127 120q71 33 152 33q11 0 22 -1q147 -3 252 -78l-35 -86q-90 67 -225 67q-116 0 -202.5 -75.5t-86.5 -196.5v-639h-98v760q0 45 -2.5 66.5t-14 44.5t-38.5 29q-14 3 -33 4q-17 0 -39 -3z" />
<glyph unicode="s" horiz-adv-x="1044" d="M92 268h96q8 -68 59.5 -117t123.5 -70.5t155 -21.5q85 0 157.5 21.5t121.5 70t49 115.5q0 46 -22 81t-45 53t-76.5 33t-76 18.5t-84.5 10.5q-15 2 -22 3q-51 6 -85.5 11t-80.5 15t-77.5 22t-65 31.5t-53 44t-32.5 59.5t-13 77q0 60 22 108t59.5 80t89.5 53t108.5 30.5 t119.5 9.5q106 0 195 -27.5t147 -88.5t58 -145h-91q0 59 -45.5 100.5t-113 60t-148.5 18.5q-80 0 -150 -19.5t-118 -65.5q-43 -42 -43 -100v-12q0 -42 24 -74t52.5 -48.5t82.5 -29t80.5 -15.5t80.5 -8q7 -1 10 -1q53 -7 87.5 -12.5t82 -17t78.5 -24.5t64.5 -34.5t52.5 -48 t31 -64.5q11 -35 11 -77v-7q0 -71 -34.5 -127.5t-94 -91t-135 -52.5t-160.5 -18q-81 0 -153 16.5t-132.5 50t-99.5 91t-47 133.5z" />
<glyph unicode="t" horiz-adv-x="831" d="M49 909v76h225l9 303h90v-303h383v-82h-383v-532q0 -148 47.5 -222.5t140.5 -79.5q9 0 18 -1q88 0 212 45l14 -86q-135 -45 -238 -45q-26 0 -49 3q-118 14 -181 110.5t-63 273.5v534z" />
<glyph unicode="u" horiz-adv-x="1183" d="M156 387v600h98v-600q0 -146 88.5 -231.5t232.5 -85.5h3q146 0 228 88q84 90 83 245v584h98v-735q1 -122 23 -154q16 -24 63 -23q17 0 39 3l2 -82q-42 -6 -76 -6q-60 0 -90 20q-48 32 -49 146q-67 -100 -146.5 -139.5t-199.5 -39.5q-184 0 -290.5 114t-106.5 296z" />
<glyph unicode="v" horiz-adv-x="1081" d="M59 977v10h109l371 -825l376 825h105v-10l-457 -981h-43z" />
<glyph unicode="w" horiz-adv-x="1517" d="M70 977v10h104l164 -440l123 -365h4l272 781h39l273 -783h2l127 367l163 440h107v-10l-373 -981h-53l-266 756l-264 -756h-52z" />
<glyph unicode="x" horiz-adv-x="962" d="M35 0v10l397 514l-340 453v10h98l293 -395h4l299 395h101v-10l-350 -457l383 -510v-10h-97l-336 451h-4l-346 -451h-102z" />
<glyph unicode="y" horiz-adv-x="1110" d="M53 977v8h105l405 -883h2l375 883h100v-8l-444 -1034q-8 -19 -24 -58q-26 -65 -41 -99t-45 -92.5t-54.5 -88t-64 -64t-79.5 -43.5q-27 -7 -62 -7q-15 0 -31 1q-54 4 -115 31l20 88q59 -27 108 -27q1 -1 3 -1q47 0 79 17q34 16 64.5 55.5t49.5 78t42 96.5l68 158z" />
<glyph unicode="z" horiz-adv-x="933" d="M53 0v14l645 887h-596v86h756v-18l-635 -877h629v-92h-799z" />
<glyph unicode="{" horiz-adv-x="581" d="M86 573v76q119 18 119 234v403q0 153 68 208.5t223 55.5v-77q-107 0 -152 -41t-45 -148v-410q0 -38 -5 -74.5t-17 -74.5t-36 -68t-57 -45q115 -50 115 -264v-418q0 -62 10.5 -99t37 -55.5t59 -24t90.5 -5.5v-84q-157 0 -224 55.5t-67 210.5v414q0 213 -119 231z" />
<glyph unicode="|" horiz-adv-x="462" d="M186 -156v1586h90v-1586h-90z" />
<glyph unicode="}" horiz-adv-x="575" d="M86 -254q107 -2 152 38t45 146v418q0 214 114 264q-114 52 -114 262v410q0 107 -45 148t-152 41v77q155 0 223 -55.5t68 -208.5v-403q0 -28 1 -47t4 -48t10.5 -49t19 -40.5t31.5 -33t46 -16.5v-76q-112 -17 -112 -231v-414q0 -155 -67 -210.5t-224 -55.5v84z" />
<glyph unicode="~" horiz-adv-x="1245" d="M145 653q47 103 133 147t182 30t189 -76q285 -195 389 49q13 -7 34.5 -16.5t35.5 -16.5q-38 -88 -93 -135.5t-120 -53t-134.5 17t-144.5 71.5q-56 36 -111 55.5t-110.5 20t-103.5 -31.5t-80 -96z" />
<glyph unicode="&#xa2;" horiz-adv-x="1234" d="M133 498q0 94 27.5 176.5t75 140.5t110.5 103t134 65.5t146.5 26.5t147.5 -13l53 154h56l-58 -166q97 -33 169 -103t106 -171l-92 -11q-56 143 -213 197l-277 -807q74 -25 153 -19.5t147.5 32.5t124 86t83.5 139l94 -9q-24 -83 -73 -148.5t-113 -106t-139 -62 t-153.5 -20.5t-152.5 24l-57 -166h-55l61 185q-136 58 -220.5 178.5t-84.5 294.5zM231 498q0 -140 65.5 -237t172.5 -148l276 798q-90 16 -180 -2.5t-165 -67.5t-122 -138.5t-47 -204.5z" />
<glyph unicode="&#xa3;" horiz-adv-x="1341" d="M100 688v84h176q-33 203 9 354.5t166 238.5t321 87q108 0 209.5 -34t177.5 -101l-41 -76q-140 122 -342 119q-252 -4 -344.5 -148t-54.5 -440h520v-84h-508q21 -109 25 -179.5t-11 -156.5q-12 -66 -28.5 -110t-55.5 -99q66 31 159.5 23.5t163.5 -29.5t163.5 -45.5 t159.5 -23.5q90 0 135 52.5t45 182.5h86q6 -169 -57.5 -246t-194.5 -77q-56 0 -144.5 18.5t-169.5 38t-165.5 31t-158.5 -4t-122 -63.5h-102v12q97 97 143 185.5t57 224.5q2 81 -30 266h-187z" />
<glyph unicode="&#xa5;" horiz-adv-x="1087" d="M76 1421v13h112l357 -736l358 736h109v-13l-394 -780h271v-84h-293v-137h293v-76h-293v-344h-104v344h-295v76h295v137h-295v84h270z" />
<glyph unicode="&#xa8;" horiz-adv-x="1048" d="M274 1380q0 31 19.5 49.5t50.5 18.5q30 0 50 -19t20 -49q0 -26 -20.5 -44.5t-49.5 -18.5q-30 0 -50 18t-20 45zM723 1380q0 31 19.5 49.5t50.5 18.5q30 0 49.5 -19t19.5 -49q0 -26 -20 -44.5t-49 -18.5q-30 0 -50 18t-20 45z" />
<glyph unicode="&#xa9;" horiz-adv-x="1628" d="M125 711q0 167 59 302.5t156 219t221 128.5t253 45t253 -45t221 -128.5t156 -219t59 -302.5q0 -135 -38.5 -249.5t-104.5 -195.5t-154.5 -138t-187.5 -84t-204 -27t-204 27t-187.5 84t-154.5 138t-104.5 195.5t-38.5 249.5zM205 711q0 -150 52.5 -272t138 -196.5 t195 -115t223.5 -40.5t223.5 40.5t195 115t138 196.5t52.5 272t-52.5 271.5t-138 196t-195 115t-223.5 40.5t-223.5 -40.5t-195 -115t-138 -196t-52.5 -271.5zM483 709q0 96 42 171t106.5 115t143 52.5t150 -5t129 -70.5t79.5 -132l-68 -6q-15 51 -51 88t-82.5 51.5 t-98.5 16t-101 -19t-89 -53.5t-64 -87.5t-24 -120.5q0 -121 77.5 -195.5t196.5 -79.5q82 -2 150 40.5t96 125.5l68 -6q-18 -62 -56.5 -109.5t-88 -74.5t-107.5 -37t-115 -3t-110 33.5t-93.5 67t-65 102.5t-24.5 136z" />
<glyph unicode="&#xab;" horiz-adv-x="917" d="M123 709l260 436l80 -25l-219 -411l219 -408l-80 -27zM438 709l260 436l80 -25l-219 -411l219 -408l-80 -27z" />
<glyph unicode="&#xad;" horiz-adv-x="931" d="M145 639v88h641v-88h-641z" />
<glyph unicode="&#xae;" horiz-adv-x="1624" d="M125 717q0 167 59 302.5t155.5 219t220 128.5t252.5 45t252.5 -45t220 -128.5t155.5 -219t59 -302.5t-59 -302.5t-155.5 -219t-220 -128.5t-252.5 -45t-252.5 45t-220 128.5t-155.5 219t-59 302.5zM203 717q0 -150 52.5 -272t138 -196.5t195 -115t223.5 -40.5t223.5 40.5 t195 115t138 196.5t52.5 272t-52.5 271.5t-138 196t-195 115t-223.5 40.5t-223.5 -40.5t-195 -115t-138 -196t-52.5 -271.5zM602 379v672h264q100 0 165 -58.5t65 -156.5q0 -81 -48 -137t-126 -68l196 -244v-8h-76l-192 244h-178v-244h-70zM672 684h190q71 0 117.5 41 t46.5 111q0 67 -47 109t-117 42h-190v-303z" />
<glyph unicode="&#xb4;" horiz-adv-x="620" d="M158 1163v6l176 269l86 -41v-11l-172 -223h-90z" />
<glyph unicode="&#xb8;" horiz-adv-x="802" d="M211 -395l4 80q38 -38 105.5 -55t130 0.5t79.5 70.5q14 41 0 73.5t-45.5 49t-68.5 23.5t-72 3l43 170h78l-33 -122q97 0 150.5 -61t25.5 -154q-23 -76 -97.5 -111.5t-158 -24.5t-141.5 58z" />
<glyph unicode="&#xbb;" horiz-adv-x="917" d="M139 301l219 408l-219 411l80 25l260 -436l-260 -435zM455 301l219 408l-219 411l80 25l260 -436l-260 -435z" />
<glyph unicode="&#x2c6;" horiz-adv-x="1011" d="M168 1176v10l281 254h100l278 -256v-8h-106l-221 200l-226 -200h-106z" />
<glyph unicode="&#x2da;" horiz-adv-x="776" d="M170 1262q0 48 18.5 87t48.5 63t69 37t79 13t79 -13t69 -37t48.5 -63t18.5 -87q0 -54 -23.5 -97t-61.5 -65.5t-84 -33t-92 0t-84 32.5t-61.5 65t-23.5 98zM244 1262q0 -42 20.5 -72.5t52 -44t67.5 -13.5t67.5 13.5t52 44t20.5 72.5q0 48 -29 81.5t-70 41t-82 0t-70 -41 t-29 -81.5z" />
<glyph unicode="&#x2dc;" horiz-adv-x="860" d="M131 1327q55 95 140.5 117t191.5 -39q64 -44 116.5 -36.5t94.5 77.5q14 -6 33.5 -18.5t23.5 -14.5q-49 -95 -127.5 -117.5t-179.5 37.5q-67 45 -125.5 37.5t-103.5 -78.5q-8 5 -32 17.5t-32 17.5z" />
<glyph unicode="&#x401;" horiz-adv-x="1165" d="M203 0v1434h827v-91h-725v-557h694v-92h-694v-600h731v-94h-833zM334 1655q0 31 19 49t50 18q30 0 50 -18.5t20 -48.5q0 -26 -20.5 -45t-49.5 -19q-30 0 -49.5 18.5t-19.5 45.5zM782 1655q0 30 19.5 48.5t50.5 18.5q30 0 50 -18.5t20 -48.5q0 -26 -20.5 -45t-49.5 -19 q-30 0 -50 18.5t-20 45.5z" />
<glyph unicode="&#x402;" horiz-adv-x="1507" d="M37 1341v93h1022v-93h-492v-561q49 108 156 161.5t246 53.5q199 -1 314.5 -116t115.5 -308v-309q0 -75 -7 -132.5t-24 -107t-45 -79.5t-69.5 -50.5t-97.5 -21t-130 9.5l2 80q45 -9 81.5 -10t64.5 6.5t48.5 20t34.5 34t23 46t14 59t7 68.5t2 79v307q0 157 -97.5 247.5 t-257.5 92.5q-156 0 -266.5 -99.5t-114.5 -246.5v-565h-100v1341h-430z" />
<glyph unicode="&#x403;" horiz-adv-x="1052" d="M203 0v1434h817v-95h-713v-1339h-104zM553 1579v10l197 287l84 -35v-8l-201 -254h-80z" />
<glyph unicode="&#x404;" horiz-adv-x="1558" d="M111 717q0 161 54.5 299t149.5 234t228.5 150.5t287.5 53.5q137 -2 259.5 -49t220.5 -142.5t147 -228.5h-102q-70 164 -209.5 244t-315.5 80q-265 1 -435 -164t-181 -432h680v-90h-678q11 -261 181.5 -428t432.5 -166q183 0 328.5 91t208.5 255h105q-45 -141 -144 -242.5 t-225.5 -150.5t-269.5 -49q-207 -1 -370.5 87t-258 256.5t-94.5 391.5z" />
<glyph unicode="&#x405;" horiz-adv-x="1323" d="M102 375h93q5 -65 37 -118t80.5 -87t111 -57t124 -33t122.5 -10q81 0 157 19t141 56.5t105.5 101t42.5 144.5q2 68 -25 118.5t-61.5 79t-105 51t-114.5 30.5t-133 21q-4 1 -6.5 1t-6.5 1t-7 1q-47 6 -79 10.5t-75.5 12t-74 16t-68 20.5t-63 27t-53.5 34.5t-46 44 t-33.5 53.5t-22.5 66t-7 79q0 79 30.5 146t81 113t117 78t138 47t145.5 15q104 0 194 -21t165.5 -64.5t121.5 -117.5t52 -172h-97q-5 64 -34.5 114t-73.5 81t-101.5 51.5t-113 28.5t-113.5 8q-78 0 -149 -18t-129.5 -53.5t-93.5 -95.5t-35 -138q0 -65 28 -113.5t58 -74 t100 -45.5t102.5 -25t115.5 -15q20 -3 30 -4q70 -10 118.5 -18.5t110.5 -24t104 -34t86 -48.5t69.5 -66.5t41.5 -88t15 -113.5q-2 -102 -49.5 -182.5t-126 -128.5t-172.5 -73t-197 -25q-81 0 -158.5 13.5t-151 44t-129.5 75t-92 112t-41 150.5z" />
<glyph unicode="&#x406;" horiz-adv-x="782" d="M68 0v84h272v1266h-254v84h610v-84h-254v-1266h273v-84h-647z" />
<glyph unicode="&#x407;" horiz-adv-x="782" d="M68 0v84h272v1266h-254v84h610v-84h-254v-1266h273v-84h-647zM102 1626q0 31 19.5 49.5t50.5 18.5q30 0 50 -19t20 -49q0 -26 -20.5 -44.5t-49.5 -18.5q-30 0 -50 18t-20 45zM551 1626q0 31 19.5 49.5t50.5 18.5q30 0 49.5 -19t19.5 -49q0 -26 -20 -44.5t-49 -18.5 q-30 0 -50 18t-20 45z" />
<glyph unicode="&#x408;" horiz-adv-x="1314" d="M74 483v103h100v-103q0 -193 114.5 -300t305.5 -107q192 0 310 109t118 298v856h-399v95h503v-951q0 -232 -148.5 -367.5t-383.5 -135.5q-233 0 -376.5 135.5t-143.5 367.5z" />
<glyph unicode="&#x409;" horiz-adv-x="2009" d="M33 2v82q40 -7 73.5 -6t58.5 4t46.5 22t35 28.5t26 43.5t18.5 48.5t13.5 61t9.5 62.5l9 72q5 38 7 57l106 957h666v-512h342q225 0 363 -133t130 -343q-6 -198 -144 -322t-349 -124h-443v1341h-473q-53 -474 -96 -874q-27 -213 -51 -290q-42 -129 -136 -166 q-79 -31 -212 -9zM1102 92h321q203 3 316 131q53 41 78.5 111t17.5 149q-6 164 -120 254t-292 90h-321v-735z" />
<glyph unicode="&#x40a;" horiz-adv-x="2025" d="M203 0v1434h104v-572h711v572h100v-564h344q222 0 358.5 -114.5t135.5 -313.5q1 -200 -137 -321t-357 -121h-444v766h-711v-766h-104zM1118 92h344q175 2 285.5 98t107.5 259q-1 106 -53.5 181.5t-139.5 111.5t-200 36h-344v-686z" />
<glyph unicode="&#x40b;" horiz-adv-x="1511" d="M37 1339v95h1022v-95h-492v-555q41 105 151 158t251 53q198 -1 313 -116t115 -308v-571h-94v571q0 157 -97.5 247.5t-257.5 92.5q-103 0 -188.5 -41t-137.5 -117.5t-55 -172.5v-580h-98v1339h-432z" />
<glyph unicode="&#x40c;" horiz-adv-x="1325" d="M203 0v1434h104v-686q279 0 365 49q27 15 51.5 45.5t41 61t35.5 80t28 78t24 79.5q4 13 6 20q16 54 32.5 93.5t40.5 75.5t53 57t68.5 37t88.5 15.5t112 -7.5v-76q-75 9 -125 -0.5t-83 -41.5t-52 -72.5t-39 -111.5q-18 -58 -23 -73.5t-22.5 -67t-29.5 -74.5t-32 -61 t-42.5 -64t-48.5 -47l532 -729v-14h-119l-503 698q-76 -39 -359 -39v-659h-104zM590 1579v10l196 287l93 -35v-8l-203 -254h-86z" />
<glyph unicode="&#x40e;" horiz-adv-x="1230" d="M14 1423v11h111l491 -879h5l440 879h110v-11l-612 -1198q-29 -61 -57 -103t-66 -76.5t-81 -48t-101 -8t-127 35.5l16 81q202 -103 316 142l104 203zM322 1804l65 11q15 -78 75 -124t148 -49q83 0 148.5 46.5t79.5 126.5q20 -2 65 -11q-17 -109 -96.5 -174t-194.5 -65 q-111 0 -192 64t-98 175z" />
<glyph unicode="&#x40f;" horiz-adv-x="1474" d="M203 0v1434h104v-1338h860v1338h105v-1434h-479v-299h-99v299h-491z" />
<glyph unicode="&#x410;" horiz-adv-x="1449" d="M31 0v12l671 1426h48l665 -1426v-12h-106l-197 414h-776l-197 -414h-108zM371 504h706l-352 756z" />
<glyph unicode="&#x411;" horiz-adv-x="1337" d="M203 0v1434h923v-95h-821v-491h451q239 0 367 -118t128 -304q-1 -90 -32.5 -166.5t-91.5 -134.5t-155 -91t-216 -34h-553zM305 94h451q188 0 289.5 92.5t103.5 237.5q0 147 -101.5 239.5t-291.5 92.5h-451v-662z" />
<glyph unicode="&#x412;" horiz-adv-x="1363" d="M203 0v1434h524q99 0 180 -21t145 -65t99 -118t35 -173q0 -109 -54 -193.5t-159 -118.5q133 -32 206.5 -126.5t73.5 -225.5q0 -193 -125 -293t-329 -100h-596zM305 94h488q104 0 181.5 29.5t126 98t48.5 171.5q0 299 -408 299h-436v-598zM305 780h426q79 0 139.5 13 t110.5 43t77 86.5t27 136.5q0 81 -28 138t-79.5 87.5t-113 43.5t-141.5 13h-418v-561z" />
<glyph unicode="&#x413;" horiz-adv-x="1052" d="M203 0v1434h817v-95h-713v-1339h-104z" />
<glyph unicode="&#x414;" horiz-adv-x="1454" d="M49 92h45q47 0 81 12.5t55 31.5t35 53.5t21 68t13 84.5l127 1092h791v-1342h161v-348h-90v256h-1155v-256h-84v348zM293 90h819v1251h-598l-113 -1005q-10 -86 -33 -150.5t-75 -95.5z" />
<glyph unicode="&#x415;" horiz-adv-x="1163" d="M203 0v1434h825v-93h-723v-555h694v-92h-694v-598h731v-96h-833z" />
<glyph unicode="&#x416;" horiz-adv-x="1939" d="M35 0v14q88 121 265 364.5t265 364.5q-16 12 -30.5 28.5t-26 30t-24.5 37t-20.5 36t-19.5 42t-16.5 40t-16 45t-13.5 41t-14 44.5t-13 41q-41 135 -106 189.5t-195 36.5v78q167 25 257.5 -41.5t137.5 -231.5q2 -5 15.5 -50t19 -60.5t20 -56t26.5 -61.5t29 -50.5t36.5 -49 t41.5 -32.5q106 -58 265 -58v693h104v-693q158 0 264 58q19 11 37 29.5t32 36.5t28.5 47t23.5 48t21 54t17 50t16.5 51.5t13.5 43.5q46 165 137 232t258 41v-78q-129 18 -195 -37t-108 -189q-20 -67 -26.5 -87.5t-28 -80t-37.5 -88.5t-44 -67t-59 -62q282 -388 533 -729v-14 h-117q-121 168 -502 698q-102 -51 -264 -51v-647h-104v647q-161 0 -261 51q-100 -137 -289.5 -401t-213.5 -297h-119z" />
<glyph unicode="&#x417;" horiz-adv-x="1202" d="M88 408h92q0 -111 56 -192.5t145 -120t199 -38.5q84 0 156 20t129.5 59t90.5 105t33 152q0 106 -59.5 184.5t-150 116t-197.5 37.5h-95v88h93q86 0 162.5 29t129 92.5t52.5 149.5q0 93 -49.5 160.5t-126 98.5t-168.5 31q-68 0 -128.5 -14.5t-112 -44t-82 -82.5 t-30.5 -123h-96q-1 74 24.5 134t68 100t101 67t122 39t133.5 12q188 0 314 -101.5t126 -274.5q0 -113 -74.5 -199t-183.5 -117q148 -37 240 -137.5t92 -249.5q0 -106 -39.5 -188t-110 -133t-163 -77t-201.5 -26q-139 0 -249 49t-176.5 151t-66.5 243z" />
<glyph unicode="&#x418;" horiz-adv-x="1521" d="M203 0v1436h104v-686l-10 -521l981 1207h41v-1436h-105v721l11 489l-987 -1210h-35z" />
<glyph unicode="&#x419;" horiz-adv-x="1521" d="M203 0h35l987 1210l-11 -489v-721h105v1436h-41l-981 -1207l10 521v686h-104v-1436zM502 1800l67 10q15 -78 75.5 -123.5t148.5 -48.5q82 0 146.5 46t78.5 126q19 -2 67 -10q-19 -110 -98 -177t-194 -67q-112 0 -193 66t-98 178z" />
<glyph unicode="&#x41a;" horiz-adv-x="1325" d="M203 0v1434h104v-686q279 0 365 49q27 15 51.5 45.5t41 61t35.5 80t28 78t24 79.5q4 13 6 20q16 54 32.5 93.5t40.5 75.5t53 57t68.5 37t88.5 15.5t112 -7.5v-76q-75 9 -125 -0.5t-83 -41.5t-52 -72.5t-39 -111.5q-18 -58 -23 -73.5t-22.5 -67t-29.5 -74.5t-32 -61 t-42.5 -64t-48.5 -47l532 -729v-14h-119l-503 698q-76 -39 -359 -39v-659h-104z" />
<glyph unicode="&#x41b;" horiz-adv-x="1464" d="M33 2v82q143 -26 202.5 35.5t75.5 206.5l125 1108h826v-1434h-105v1341h-633l-112 -1024q-6 -64 -18 -112t-32 -88.5t-48.5 -65.5t-68.5 -41.5t-92.5 -16.5t-119.5 9z" />
<glyph unicode="&#x41c;" horiz-adv-x="1685" d="M203 0v1436h43l598 -861l596 861h43v-1436h-105v1178l-524 -758h-20l-527 758v-1178h-104z" />
<glyph unicode="&#x41d;" horiz-adv-x="1474" d="M203 0v1434h102v-633h862v633h105v-1434h-105v705h-862v-705h-102z" />
<glyph unicode="&#x41e;" horiz-adv-x="1671" d="M111 717q0 163 55.5 301.5t152 234t230 149.5t285.5 54q207 0 372 -91.5t260 -261t95 -386.5q0 -215 -92 -383.5t-258 -262.5t-377 -94q-155 0 -288.5 54t-229.5 150t-150.5 234.5t-54.5 301.5zM215 717q0 -140 47 -260t129 -204t196.5 -131.5t246.5 -47.5q177 0 319 81 t222.5 228t80.5 334q0 186 -79.5 332.5t-221 227.5t-319.5 81t-319.5 -80.5t-221.5 -227t-80 -333.5z" />
<glyph unicode="&#x41f;" horiz-adv-x="1474" d="M203 0v1434h1069v-1434h-105v1337h-862v-1337h-102z" />
<glyph unicode="&#x420;" horiz-adv-x="1327" d="M203 2v1434h555q218 0 357.5 -134.5t139.5 -343.5q0 -207 -139.5 -340t-357.5 -133h-453v-483h-102zM305 580h453q169 0 282 106t113 275q0 168 -112 275t-283 107h-453v-763z" />
<glyph unicode="&#x421;" horiz-adv-x="1558" d="M111 717q0 215 93 383t257 260t370 92q212 -5 383 -112.5t242 -305.5h-100q-72 153 -214.5 237.5t-314.5 84.5q-180 3 -320.5 -80.5t-216 -229.5t-75.5 -329q0 -135 44.5 -252t123.5 -202t194.5 -134t251.5 -49q181 0 326.5 91t210.5 255h100q-67 -210 -242 -326 t-395 -116q-153 0 -286 53.5t-228 149t-149.5 232.5t-54.5 298z" />
<glyph unicode="&#x422;" horiz-adv-x="1118" d="M37 1339v95h1044v-95h-471v-1339h-102v1339h-471z" />
<glyph unicode="&#x423;" horiz-adv-x="1230" d="M14 1423v11h115l485 -879h4l441 879h112v-11l-612 -1198q-29 -60 -57 -102t-66 -76.5t-81 -48t-101 -7.5t-127 36l16 79q202 -103 316 142l104 203z" />
<glyph unicode="&#x424;" horiz-adv-x="1785" d="M131 719q0 120 40 216t106.5 158t159.5 103.5t193 59.5t214 20v160h98v-160q115 -2 215.5 -20t193.5 -59t159 -103t105.5 -157.5t39.5 -217.5q0 -121 -39.5 -217t-105.5 -157.5t-159.5 -102.5t-193.5 -58.5t-215 -19.5v-164h-98v164q-114 2 -214 20t-193 59t-159.5 103 t-106.5 157.5t-40 215.5zM236 719q0 -105 35 -186.5t92 -132t138 -84t164.5 -47t180.5 -15.5v930q-80 -2 -151.5 -12t-142 -31t-126.5 -57t-99.5 -85.5t-67 -120.5t-23.5 -159zM940 254q99 2 183.5 15.5t165 46.5t137 84t90.5 132.5t34 186.5q0 104 -34.5 185.5t-91 132.5 t-137.5 84t-165 47t-182 16v-930z" />
<glyph unicode="&#x425;" horiz-adv-x="1243" d="M25 0v14l540 742l-485 663v15h110l433 -594h2l434 594h106v-13l-485 -665l541 -744v-12h-113l-481 672h-4l-484 -672h-114z" />
<glyph unicode="&#x426;" horiz-adv-x="1470" d="M203 0v1434h104v-1338h826v1338h102v-1342h158v-344h-86v252h-1104z" />
<glyph unicode="&#x427;" horiz-adv-x="1288" d="M100 1208v224h105v-224q0 -157 35 -270t101 -179.5t161 -100.5t216 -33t265 22v785h102v-1432h-102v549q-162 -23 -298 -21t-244.5 44t-184 120t-116 208t-40.5 308z" />
<glyph unicode="&#x428;" horiz-adv-x="2099" d="M203 0v1434h104v-1338h686v1338h105v-1338h694v1338h104v-1434h-1693z" />
<glyph unicode="&#x429;" horiz-adv-x="2101" d="M203 0v1434h104v-1338h668v1338h104v-1338h686v1338h103v-1342h155v-342h-86v250h-1734z" />
<glyph unicode="&#x42a;" horiz-adv-x="1454" d="M57 1343v91h392v-512h440q218 0 355.5 -125.5t137.5 -329.5t-138.5 -335.5t-354.5 -131.5h-543v1343h-289zM449 92h440q169 0 281.5 104.5t111.5 270.5q0 165 -111 262.5t-282 97.5h-440v-735z" />
<glyph unicode="&#x42b;" horiz-adv-x="1798" d="M203 0v1434h100v-144v-368h440q224 0 361.5 -131t130.5 -340q-3 -199 -141.5 -325t-350.5 -126h-540zM303 92h426q177 0 291 100t117 269q3 166 -108.5 266t-285.5 100h-131h-309v-735zM1493 0v1434h102v-1434h-102z" />
<glyph unicode="&#x42c;" horiz-adv-x="1308" d="M203 0v1434h100v-512h440q218 0 356 -125.5t138 -329.5q1 -204 -138 -335.5t-356 -131.5h-540zM303 92h440q169 0 281.5 104.5t112.5 270.5q0 165 -111.5 262.5t-282.5 97.5h-440v-735z" />
<glyph unicode="&#x42d;" horiz-adv-x="1558" d="M88 424h105q63 -164 207.5 -255t326.5 -91q262 -1 432 165.5t182 428.5h-677v90h677q-9 261 -179 429t-433 167q-173 -2 -313 -86t-211 -238h-103q48 133 145.5 228.5t220.5 142.5t261 49q154 1 287.5 -53.5t228.5 -150.5t149 -234t54 -299t-55 -298.5t-151 -233.5 t-229.5 -150t-287.5 -53q-143 0 -269.5 49t-225 150.5t-142.5 242.5z" />
<glyph unicode="&#x42e;" horiz-adv-x="2142" d="M203 0v1434h104v-662h287q11 202 107 358t255 241t355 85q153 -1 286 -54.5t229 -149t151 -233.5t55 -302q0 -163 -55 -301.5t-151.5 -234t-230 -148.5t-286.5 -53q-198 0 -358 86t-255 244.5t-104 363.5h-285v-674h-104zM692 717q0 -140 47 -260t128.5 -203t196 -129.5 t245.5 -46.5q133 0 247.5 46.5t196 129.5t128 202.5t46.5 260.5q0 283 -174.5 461t-443.5 178q-177 0 -317 -79.5t-220 -226t-80 -333.5z" />
<glyph unicode="&#x42f;" horiz-adv-x="1366" d="M70 2v14l448 547q-171 24 -279 138t-108 288q0 198 135 322.5t344 124.5h553v-1434h-102v549h-436l-439 -549h-116zM231 991q0 -160 109 -256t272 -96h451v702h-451q-164 0 -272.5 -96t-108.5 -254z" />
<glyph unicode="&#x430;" horiz-adv-x="1099" d="M82 283q0 81 31.5 145.5t85.5 104t122 60.5t144 21q201 0 366 -86v152q0 69 -29 118.5t-79 75.5t-105 37t-120 11q-188 0 -318 -76l-22 82q148 82 352 82q84 0 155.5 -18t131.5 -55.5t94.5 -103.5t34.5 -155l-2 -451v-15q0 -92 13 -119q22 -47 112 -36l4 -67 q-123 -20 -166.5 23.5t-38.5 164.5q-55 -100 -167.5 -147t-248.5 -47q-88 0 -167 34.5t-131 104.5t-52 160zM178 287q3 -73 42.5 -123.5t98.5 -73t130 -22.5q84 0 160.5 24t139 80t82.5 137v133q-173 93 -354 90q-121 0 -212 -65t-87 -180z" />
<glyph unicode="&#x431;" horiz-adv-x="1230" d="M129.5 733.5q16.5 136.5 69 243t158.5 187.5t268 132q17 5 32 10.5t35.5 13.5t38 16t36.5 19.5t33 23t26.5 26t18 30t5.5 33.5t-8 37h92q17 -45 2.5 -86t-40.5 -72.5t-68.5 -58.5t-80.5 -44.5t-77 -29.5q-104 -32 -180 -72.5t-138 -99t-98 -140t-47 -187.5 q49 119 164 193t272 75q217 1 352 -141t135 -357q0 -97 -32 -185.5t-92 -160t-158 -114.5t-219 -43q-113 0 -205 36.5t-152 100t-95.5 143.5t-45.5 172q-18 163 -1.5 299.5zM223 485q0 -183 113.5 -299t294.5 -116q96 0 174 34t128 92t76.5 132.5t26.5 156.5 q0 179 -108 293.5t-299 114.5q-96 0 -174 -34t-127.5 -91.5t-76.5 -130t-28 -152.5z" />
<glyph unicode="&#x432;" horiz-adv-x="1071" d="M166 -2v989h346q43 0 77.5 -1.5t77.5 -7.5t75.5 -16.5t65.5 -29t54.5 -44t35 -63.5t13.5 -86q0 -166 -161 -213q223 -45 223 -252q0 -71 -27 -123t-67.5 -80.5t-100.5 -45.5t-112.5 -22t-118.5 -5h-381zM262 84h279q44 0 74.5 1.5t73.5 7t72 18.5t57 33.5t42 55t14 79.5 q0 32 -7.5 58t-18.5 45t-31.5 33.5t-38 24t-46.5 16.5t-48.5 10t-53 5t-51 2h-50.5h-11h-256v-389zM262 557h254q49 0 81 2t77.5 11.5t73 26.5t47.5 51.5t20 82.5q0 40 -12.5 70.5t-38 48.5t-50.5 29t-65.5 15.5t-65.5 5.5t-67 1h-254v-344z" />
<glyph unicode="&#x433;" horiz-adv-x="874" d="M166 0v987h659v-88h-561v-899h-98z" />
<glyph unicode="&#x434;" horiz-adv-x="1148" d="M41 80h2h37q35 0 61.5 10t45 39t30 49t22 75t13.5 79t12 95q1 11 2 16.5t2 14.5t2 17l68 512h610v-907h137l-2 -338h-86v258h-868v-258h-86zM231 80h623v821h-436l-64 -485q-7 -51 -9.5 -69t-8.5 -56.5t-10 -52t-11 -40.5t-14.5 -38.5t-18 -28.5t-23 -28.5t-28.5 -22.5z " />
<glyph unicode="&#x435;" horiz-adv-x="1144" d="M102 528q12 223 148.5 351.5t351.5 128.5q242 -2 359.5 -138t76.5 -381h-837q0 -206 117.5 -311t320.5 -110q181 3 342 75l20 -84q-178 -79 -360 -79q-167 0 -290.5 62.5t-190 187.5t-58.5 298zM203 573h753q11 113 -33.5 194t-128.5 120t-196 39q-166 0 -272 -94 t-123 -259z" />
<glyph unicode="&#x436;" horiz-adv-x="1503" d="M57 0v14l351 498q-298 93 -291 475h88q-6 -434 432 -434h65v436h93v-436h63q225 0 332.5 107t105.5 327h90q3 -381 -299 -475l361 -498v-14h-98l-346 483q-64 -12 -146 -12h-63v-471h-93v471h-65q-73 0 -141 12l-338 -483h-101z" />
<glyph unicode="&#x437;" horiz-adv-x="972" d="M78 100l6 99q59 -56 172 -94.5t209 -38.5q83 1 150.5 21.5t114 70t46.5 121.5q0 54 -22 92.5t-53.5 59t-83 32t-92.5 14t-99 2.5h-119v80q18 0 56 -1t59 -1q49 1 83.5 3.5t77 13.5t69 29t45 51.5t18.5 80.5q0 183 -275 183q-79 0 -167.5 -20.5t-147.5 -57.5l-10 86 q66 38 157.5 59t180.5 21q70 0 131 -13.5t114.5 -42t85 -82t31.5 -125.5q0 -84 -42.5 -141.5t-125.5 -75.5q106 -19 168 -85.5t62 -170.5q0 -75 -34.5 -133t-92.5 -91t-127 -49.5t-146 -16.5q-113 0 -221 32.5t-178 87.5z" />
<glyph unicode="&#x438;" d="M166 0v987h96v-532l-12 -273l708 805h37v-987h-94v594l10 215l-710 -809h-35z" />
<glyph unicode="&#x439;" d="M166 0h35l710 809l-10 -215v-594h94v987h-37l-708 -805l12 273v532h-96v-987zM326 1425l65 11q13 -77 71.5 -120.5t143.5 -45.5q82 0 144.5 43.5t76.5 122.5q10 -1 32 -5.5t32 -5.5q-15 -105 -93.5 -168t-189.5 -63q-106 0 -185.5 62t-96.5 169z" />
<glyph unicode="&#x43a;" horiz-adv-x="1071" d="M166 2v987h98v-432h164q219 0 329.5 106t110.5 326h95q3 -380 -308 -475l357 -500v-12h-105l-342 483q-65 -12 -139 -12h-162v-471h-98z" />
<glyph unicode="&#x43b;" horiz-adv-x="1150" d="M16 0v78q36 -6 65.5 -7t52 5.5t39 15.5t29 27t20.5 34.5t14 44.5t10 50.5t8 58.5l82 680h649v-987h-96v899h-469l-72 -598q-5 -47 -11.5 -82.5t-16 -69.5t-22.5 -57.5t-31 -44t-41.5 -32t-54 -18t-69 -5.5t-86.5 8z" />
<glyph unicode="&#x43c;" horiz-adv-x="1294" d="M166 4v983h37l442 -584l447 584h36v-983h-96v762l-381 -500h-12l-379 500v-762h-94z" />
<glyph unicode="&#x43d;" horiz-adv-x="1167" d="M166 0v987h96v-434h643v434h96v-987h-96v465h-643v-465h-96z" />
<glyph unicode="&#x43e;" horiz-adv-x="1236" d="M100 496q0 123 44.5 223t117.5 161.5t166 94.5t190.5 33t190.5 -33t166 -94.5t117.5 -161.5t44.5 -223t-44.5 -222.5t-117.5 -160.5t-166 -94.5t-190.5 -33.5t-190.5 33.5t-166 94.5t-117.5 160.5t-44.5 222.5zM199 496q0 -101 36 -183t95 -132.5t134.5 -78t154 -27.5 t154 27t134.5 77.5t95 132.5t36 184t-36 184.5t-95 133t-134.5 78t-154 27.5t-154 -27.5t-134.5 -78t-95 -133t-36 -184.5z" />
<glyph unicode="&#x43f;" horiz-adv-x="1163" d="M166 0v987h831v-987h-96v899h-637v-899h-98z" />
<glyph unicode="&#x440;" horiz-adv-x="1228" d="M74 997q118 19 166.5 -26.5t48.5 -153.5v-29q109 224 391 224q105 0 191.5 -42t141.5 -113.5t85 -163.5t30 -195q0 -114 -36.5 -209.5t-98 -159t-145 -100.5t-174 -41t-188 27t-185.5 96v-621h-96v1196v33v38t-0.5 35t-2 31.5t-4.5 27.5t-8 23.5t-11.5 18.5t-16 14 t-21.5 8.5t-28 2.5t-35 -3zM301 213q74 -62 158.5 -95.5t164 -37t153.5 22.5t129.5 77t88.5 133.5t33 184.5q0 84 -23.5 159.5t-67.5 134.5t-114.5 93.5t-158.5 34.5q-159 0 -258.5 -108.5t-104.5 -268.5v-330z" />
<glyph unicode="&#x441;" d="M100 498q0 99 30 184.5t82 145t120 102t144 62t155 18.5q149 -3 269 -79t167 -216h-96q-43 99 -135 152t-203 55q-81 1 -157 -26t-138.5 -78.5t-100.5 -134.5t-38 -185q0 -101 36 -183.5t96 -134t134 -79t153 -27.5q120 0 218.5 60.5t142.5 174.5h98 q-49 -156 -177 -239.5t-286 -83.5q-97 0 -187.5 33t-164 95t-118 161.5t-44.5 222.5z" />
<glyph unicode="&#x442;" horiz-adv-x="940" d="M47 901v86h846v-86h-377v-901h-94v901h-375z" />
<glyph unicode="&#x443;" horiz-adv-x="1110" d="M53 977v8h105l405 -881h2l375 881h100v-8l-444 -1034q-6 -15 -18 -44q-27 -67 -42 -101t-45 -93t-54.5 -88.5t-64 -64t-79.5 -43.5t-94.5 -4.5t-116.5 32.5l18 74q59 -27 108 -27.5t82 15.5t64 56t49.5 77.5t42.5 97.5l68 158z" />
<glyph unicode="&#x444;" horiz-adv-x="1767" d="M106 498q0 140 41 248t113.5 168.5t164 81.5t199.5 -8t214 -105v608h96v-608q105 75 212 104.5t198 8.5t163 -81.5t113 -168.5t41 -248t-41 -247.5t-113 -168t-163 -81.5t-198 8.5t-212 105.5v-617h-96v617q-106 -76 -214 -105.5t-199.5 -8.5t-164 81.5t-113.5 168 t-41 247.5zM209 498q0 -125 36.5 -218t100 -140.5t143 -59t171.5 22t180 106.5v577q-74 62 -150.5 95t-146 37t-131 -22t-106.5 -77.5t-71 -134t-26 -186.5zM934 209q88 -73 179.5 -106.5t171 -22t142.5 59t99.5 140.5t36.5 218t-36.5 218t-99.5 140.5t-142.5 59t-171 -22 t-179.5 -107.5v-577z" />
<glyph unicode="&#x445;" horiz-adv-x="962" d="M35 0v10l397 514l-340 453v10h98l293 -395h4l299 395h101v-10l-350 -457l383 -510v-10h-97l-336 451h-4l-346 -451h-102z" />
<glyph unicode="&#x446;" horiz-adv-x="1126" d="M166 0v987h94v-897h574v897h92v-903h137l-2 -338h-86v254h-809z" />
<glyph unicode="&#x447;" horiz-adv-x="1058" d="M96 750v237h99v-237q0 -110 38 -187.5t101 -112t141 -39.5t162 25.5t160 89.5v461h96v-987h-98v422q-73 -49 -153.5 -74.5t-158 -27t-148 25.5t-123.5 77.5t-84.5 134.5t-31.5 192z" />
<glyph unicode="&#x448;" horiz-adv-x="1605" d="M166 0v987h96v-899h496v899h94v-899h496v899h92v-987h-1274z" />
<glyph unicode="&#x449;" horiz-adv-x="1644" d="M166 0v987h96v-899h496v899h94v-899h496v899h94v-905h133l-2 -340h-86v258h-1321z" />
<glyph unicode="&#x44a;" horiz-adv-x="1153" d="M41 901v86h350v-342h264q66 0 125 -9t115 -32t96.5 -58.5t65 -91.5t24.5 -128t-24.5 -129t-65 -93t-96.5 -60t-115 -34t-125 -10h-360v901h-254zM391 82h264q63 0 119 12.5t105 39.5t77.5 76t28.5 116q0 53 -19.5 94.5t-51 68.5t-75 44.5t-89 24.5t-95.5 7h-264v-483z " />
<glyph unicode="&#x44b;" horiz-adv-x="1419" d="M166 0v987h96v-342h264q66 0 125 -9t115 -32t96.5 -58.5t65 -91.5t24.5 -128t-24.5 -129t-65.5 -93t-97.5 -60t-115.5 -34t-125 -10h-358zM262 82h262q64 0 120 12.5t105.5 39.5t78 76t28.5 116q0 53 -20 95t-52 68.5t-76 44t-89.5 24.5t-94.5 7h-262v-483zM1159 0v987 h94v-987h-94z" />
<glyph unicode="&#x44c;" horiz-adv-x="1024" d="M166 0v987h96v-342h264q66 0 125 -9t115 -32t96.5 -58.5t65 -91.5t24.5 -128t-24.5 -129t-65.5 -93t-97.5 -60t-115.5 -34t-125 -10h-358zM262 82h262q64 0 120 12.5t105.5 39.5t78 76t28.5 116q0 65 -28.5 113.5t-78 75t-105.5 38.5t-120 12h-262v-483z" />
<glyph unicode="&#x44d;" horiz-adv-x="1167" d="M78 315l96 4q42 -120 146.5 -184.5t228.5 -64.5q79 2 151 26t130 70t95 119t42 164h-543v86h543q-5 93 -44 168t-99.5 121.5t-133.5 71t-151 24.5q-117 -2 -211 -56.5t-138 -158.5l-92 4q30 98 100 167.5t157.5 101t185.5 30.5q99 1 192 -32t168 -95t120.5 -162.5 t45.5 -224.5q0 -98 -29.5 -182t-79.5 -144t-116.5 -102.5t-141.5 -63t-153 -20.5q-105 -1 -198.5 34.5t-167 112.5t-103.5 186z" />
<glyph unicode="&#x44e;" horiz-adv-x="1622" d="M166 0v987h96v-434h227q11 110 59 198.5t120.5 143t160.5 83.5t183 28q98 -1 188 -34t162.5 -95t116 -161.5t43.5 -221.5q0 -123 -43.5 -222.5t-116.5 -161t-163.5 -94.5t-190.5 -34q-97 -1 -187 29.5t-164 89t-120 153t-50 211.5h-225v-465h-96zM584 494 q0 -102 36.5 -185t97 -133.5t135 -77.5t155.5 -26q80 0 153 27.5t131.5 78.5t93.5 133t35 183t-35 183t-93.5 133t-131.5 78.5t-153 29.5q-81 0 -155.5 -27t-135 -77.5t-97 -133.5t-36.5 -186z" />
<glyph unicode="&#x44f;" horiz-adv-x="1021" d="M74 0v10l303 373q-118 20 -190 95.5t-72 197.5q0 137 95 224t239 87h407v-987h-98v369h-279l-301 -369h-104zM213 676q0 -105 73 -164t183 -59h289v452h-289q-111 0 -183.5 -61.5t-72.5 -167.5z" />
<glyph unicode="&#x451;" horiz-adv-x="1144" d="M102 528q12 223 148.5 351.5t351.5 128.5q242 -2 359.5 -138t76.5 -381h-837q0 -206 117.5 -311t320.5 -110q181 3 342 75l20 -84q-178 -79 -360 -79q-167 0 -290.5 62.5t-190 187.5t-58.5 298zM203 573h753q11 113 -33.5 194t-128.5 120t-196 39q-166 0 -272 -94 t-123 -259zM340 1372q0 29 18 45.5t48 16.5q27 0 45 -17t18 -45q0 -25 -18.5 -42t-44.5 -17q-29 0 -47.5 17t-18.5 42zM756 1372q0 29 17 45.5t46 16.5q27 0 46.5 -17t19.5 -45q0 -24 -19.5 -41.5t-46.5 -17.5q-29 0 -46 17t-17 42z" />
<glyph unicode="&#x452;" horiz-adv-x="1153" d="M-6 1274v78h172v147h96v-147h342v-78h-342v-459q69 106 152.5 151.5t210.5 45.5q195 0 297 -117t102 -307v-305q0 -63 -5 -113.5t-17 -97t-31.5 -79t-48 -59t-67 -38t-89 -16t-113.5 8.5q0 13 1 41t1 41q45 -9 81 -9.5t63.5 8.5t48 22.5t34 37t22.5 48.5t13.5 60t6.5 69 t2 78v303q-2 160 -86 250t-238 90q-151 0 -245.5 -110.5t-94.5 -270.5v-547h-96v1274h-172z" />
<glyph unicode="&#x453;" horiz-adv-x="897" d="M166 0v987h682v-88h-584v-899h-98zM442 1198v8l181 277l86 -33v-10l-185 -242h-82z" />
<glyph unicode="&#x454;" horiz-adv-x="1167" d="M100 494q0 124 45.5 224.5t121 162.5t168.5 95t192 32q97 1 184.5 -30.5t157.5 -101t100 -167.5l-92 -4q-44 103 -139 158t-211 57q-78 0 -150.5 -24t-132 -70t-98 -120t-43.5 -167h540v-86h-540q5 -92 41.5 -165.5t94 -119.5t129 -71t150.5 -27q124 0 228.5 64.5 t146.5 184.5l97 -4q-30 -109 -103.5 -186t-167 -112.5t-198.5 -34.5q-98 0 -190.5 33.5t-166.5 95.5t-119 162t-45 221z" />
<glyph unicode="&#x455;" horiz-adv-x="1044" d="M92 268h96q8 -68 59.5 -117t123.5 -70.5t155 -21.5q85 0 157.5 21.5t121.5 70t49 115.5q0 46 -22 81t-45 53t-76.5 33t-76 18.5t-84.5 10.5q-15 2 -22 3q-51 6 -85.5 11t-80.5 15t-77.5 22t-65 31.5t-53 44t-32.5 59.5t-13 77q0 60 22 108t59.5 80t89.5 53t108.5 30.5 t119.5 9.5q106 0 195 -27.5t147 -88.5t58 -145h-91q0 59 -45.5 100.5t-113 60t-148.5 18.5q-80 0 -150 -19.5t-118 -65.5t-43 -112q0 -42 24 -74t52.5 -48.5t82.5 -29t80.5 -15.5t80.5 -8q7 -1 10 -1q53 -7 87.5 -12.5t82 -17t78.5 -24.5t64.5 -34.5t52.5 -48t31 -64.5 t11 -84q0 -71 -34.5 -127.5t-94 -91t-135 -52.5t-160.5 -18q-81 0 -153 16.5t-132.5 50t-99.5 91t-47 133.5z" />
<glyph unicode="&#x456;" horiz-adv-x="440" d="M154 1333q0 34 20.5 53t48.5 17q27 -2 46.5 -20t19.5 -50t-18.5 -49.5t-45.5 -19.5q-28 -2 -49.5 17t-21.5 52zM172 0v981h96v-981h-96z" />
<glyph unicode="&#x457;" horiz-adv-x="442" d="M-8 1370q0 31 19 49.5t50 18.5q30 0 50 -19t20 -49q0 -26 -20.5 -44.5t-49.5 -18.5q-30 0 -49.5 18t-19.5 45zM172 0v983h98v-983h-98zM305 1370q0 31 19.5 49.5t50.5 18.5q30 0 49.5 -19t19.5 -49q0 -26 -20 -44.5t-49 -18.5q-30 0 -50 18t-20 45z" />
<glyph unicode="&#x458;" horiz-adv-x="442" d="M-104 -510l4 80q40 -7 73.5 -7.5t59.5 4.5t46 17t34.5 27t25 37.5t17 46t10 56t5 62.5t1.5 70v1100h98v-1100q0 -75 -7 -132.5t-24 -109t-44.5 -83.5t-69.5 -54.5t-98.5 -23.5t-130.5 10zM154 1333q0 33 19.5 51.5t47.5 18.5q27 0 47.5 -19t20.5 -51t-19.5 -49.5 t-46.5 -19.5q-28 -2 -48.5 16.5t-20.5 52.5z" />
<glyph unicode="&#x459;" horiz-adv-x="1540" d="M14 0l2 78q36 -6 65.5 -7t51.5 5.5t38.5 15.5t29 27t20.5 35t14.5 44.5t10.5 50.5t8 58l80 680h540v-342h197q83 0 150.5 -15.5t124.5 -50.5t88.5 -99t31.5 -154t-32 -155t-88.5 -101.5t-124.5 -53t-150 -16.5h-293v899h-358l-72 -598q-5 -47 -11.5 -82.5t-16.5 -69.5 t-23 -57.5t-31 -44t-42 -32t-54.5 -18t-69 -5.5t-86.5 8zM874 82h195q63 0 115 12.5t95.5 39.5t68 76t24.5 116q0 66 -24.5 114t-68 74.5t-95.5 38.5t-115 12h-195v-483z" />
<glyph unicode="&#x45a;" horiz-adv-x="1538" d="M166 0v987h98v-387h510v387h96v-383h199q67 0 121.5 -7.5t107 -28t88 -53.5t57 -87.5t21.5 -126.5t-21.5 -126.5t-57.5 -87t-88.5 -52.5t-107.5 -27.5t-122 -7.5h-293v512h-510v-512h-98zM870 82h197q67 0 116 8.5t93.5 31t68 67.5t23.5 112q0 53 -16.5 93t-43 64.5 t-66.5 39.5t-82 20.5t-93 5.5h-197v-442z" />
<glyph unicode="&#x45b;" horiz-adv-x="1177" d="M-6 1278v74h172v147h96v-147h342v-74h-342v-467q58 104 139 150t207 49q193 0 304.5 -109.5t111.5 -312.5v-588h-98v588q-2 158 -86.5 249t-237.5 91q-151 0 -245.5 -106t-94.5 -265v-557h-96v1278h-172z" />
<glyph unicode="&#x45c;" horiz-adv-x="1069" d="M166 2v987h98v-446h162q440 0 440 446h95q3 -392 -308 -491l357 -484v-12h-103l-342 467q-54 -10 -141 -10h-160v-457h-98zM481 1198v8l164 248l78 -29v-10l-168 -217h-74z" />
<glyph unicode="&#x45e;" horiz-adv-x="1110" d="M53 977v8h105l405 -887h2l375 887h100v-8l-444 -1034q-7 -17 -21 -52q-27 -66 -41.5 -100.5t-45 -93.5t-54.5 -89t-63.5 -65t-79.5 -44.5t-94 -5t-115 31.5l18 86q59 -27 108 -27.5t82 15.5t64 56t49.5 77.5t42.5 97.5l68 158zM272 1395l66 12q13 -77 72 -121t145 -47 q80 0 142.5 44.5t76.5 123.5q31 -5 64 -12q-15 -104 -93 -168t-190 -64q-106 0 -186 62.5t-97 169.5z" />
<glyph unicode="&#x45f;" d="M166 0v987h96v-899h635v899h98v-987h-368v-236h-90v236h-371z" />
<glyph unicode="&#x490;" horiz-adv-x="1052" d="M203 0v1434h729v227h88v-322h-713v-1339h-104z" />
<glyph unicode="&#x491;" horiz-adv-x="897" d="M166 0v987h598v211h84v-299h-584v-899h-98z" />
<glyph unicode="&#x2000;" horiz-adv-x="938" />
<glyph unicode="&#x2001;" horiz-adv-x="1876" />
<glyph unicode="&#x2002;" horiz-adv-x="938" />
<glyph unicode="&#x2003;" horiz-adv-x="1876" />
<glyph unicode="&#x2004;" horiz-adv-x="625" />
<glyph unicode="&#x2005;" horiz-adv-x="469" />
<glyph unicode="&#x2006;" horiz-adv-x="312" />
<glyph unicode="&#x2007;" horiz-adv-x="312" />
<glyph unicode="&#x2008;" horiz-adv-x="234" />
<glyph unicode="&#x2009;" horiz-adv-x="375" />
<glyph unicode="&#x200a;" horiz-adv-x="104" />
<glyph unicode="&#x2010;" horiz-adv-x="931" d="M145 639v88h641v-88h-641z" />
<glyph unicode="&#x2011;" horiz-adv-x="931" d="M145 639v88h641v-88h-641z" />
<glyph unicode="&#x2012;" horiz-adv-x="931" d="M145 639v88h641v-88h-641z" />
<glyph unicode="&#x2013;" horiz-adv-x="1112" d="M145 639v88h822v-88h-822z" />
<glyph unicode="&#x2014;" horiz-adv-x="1292" d="M145 639v88h1002v-88h-1002z" />
<glyph unicode="&#x2018;" horiz-adv-x="425" d="M145 1229q-3 14 0 22q4 26 11 43l45 142h67l-39 -133q50 -13 50 -62q0 -29 -19 -46t-49 -17q-25 0 -43.5 14t-22.5 37z" />
<glyph unicode="&#x2019;" horiz-adv-x="428" d="M154 1374q0 29 18.5 45.5t48.5 16.5q25 0 43.5 -13.5t22.5 -36.5q3 -15 0 -24q-3 -20 -11 -43l-43 -139h-69l39 131q-49 13 -49 63z" />
<glyph unicode="&#x201a;" horiz-adv-x="419" d="M143 43q0 29 19 45t49 16q24 0 42.5 -13t22.5 -36v-24q-3 -7 -5 -21.5t-5 -21.5q-19 -51 -47 -150h-69l43 144q-50 10 -50 61z" />
<glyph unicode="&#x201c;" horiz-adv-x="706" d="M150 1225v24q3 7 6 20.5t6 20.5l43 142h67l-36 -132q47 -14 47 -63q0 -29 -18 -45t-48 -16q-25 0 -44 13t-23 36zM422 1225v24q3 7 5 20.5t5 20.5l45 142h68l-39 -132q49 -13 49 -63q0 -29 -19 -45t-49 -16q-25 0 -43 13t-22 36z" />
<glyph unicode="&#x201d;" horiz-adv-x="702" d="M154 1374q0 29 18.5 45.5t48.5 16.5q25 0 43.5 -13.5t22.5 -36.5q3 -15 0 -24q-3 -20 -11 -43l-43 -139h-69l39 131q-49 13 -49 63zM428 1374q0 29 19 45.5t49 16.5q24 0 42.5 -13.5t22.5 -36.5v-24q-3 -8 -5 -21.5t-5 -21.5l-45 -139h-68l39 131q-49 13 -49 63z" />
<glyph unicode="&#x201e;" horiz-adv-x="702" d="M143 43q0 29 18 45t48 16q25 0 44 -13t23 -36v-24q-3 -7 -6 -20.5t-6 -20.5q-9 -27 -25.5 -78t-21.5 -68h-67l40 138q-21 5 -34 21t-13 40zM426 43q0 29 19 45t49 16q25 0 43 -13t22 -36q3 -15 0 -24q-4 -27 -10 -41q-33 -97 -47 -146h-70l43 138q-49 9 -49 61z" />
<glyph unicode="&#x2026;" horiz-adv-x="1179" d="M145 55q0 30 21 49t51 19q31 0 52.5 -19t21.5 -49q0 -29 -21.5 -48t-52.5 -19q-30 0 -51 19t-21 48zM512 55q0 30 21 49t51 19q31 0 52 -19t21 -49q0 -29 -21 -48t-52 -19q-30 0 -51 19t-21 48zM889 55q0 30 20.5 49t51.5 19t52 -19t21 -49q0 -29 -21 -48t-52 -19 t-51.5 19t-20.5 48z" />
<glyph unicode="&#x202f;" horiz-adv-x="375" />
<glyph unicode="&#x2039;" horiz-adv-x="602" d="M123 709l260 436l80 -25l-219 -411l219 -408l-80 -27z" />
<glyph unicode="&#x203a;" horiz-adv-x="602" d="M139 301l219 408l-219 411l80 25l260 -436l-260 -435z" />
<glyph unicode="&#x205f;" horiz-adv-x="469" />
<glyph unicode="&#x20ac;" horiz-adv-x="1366" d="M104 522v80h162q-15 114 0 232h-162v79h177q57 245 247 391t449 146q116 0 235 -39l-32 -82q-96 35 -201 35q-225 0 -383.5 -120.5t-212.5 -330.5h594l-29 -79h-586q-15 -118 0 -232h510l-26 -80h-465q53 -206 211.5 -329t382.5 -123q134 0 252 53l33 -84 q-129 -57 -287 -57q-264 0 -452 147t-242 393h-175z" />
<glyph unicode="&#x2122;" horiz-adv-x="1554" d="M145 1370v66h508v-66h-215v-506h-73v506h-220zM766 864v572h43l262 -324l260 324h45v-572h-76v414l-225 -279h-10l-223 279v-414h-76z" />
<glyph unicode="&#x25fc;" horiz-adv-x="983" d="M0 0v983h983v-983h-983z" />
</font>
</defs>
</svg>
